<svg version="1.1" id="Layer_1" xmlns="http://www.w3.org/2000/svg" xmlns:xlink="http://www.w3.org/1999/xlink" x="0px" y="0px"
	 width="100%" viewBox="0 0 538 539" enable-background="new 0 0 538 539" xml:space="preserve">
<path fill="#161F4E" opacity="1.000000" stroke="none" 
	d="
M306.000000,540.000000 
	C204.023544,540.000000 102.547089,540.000000 1.035319,540.000000 
	C1.035319,360.398560 1.035319,180.797119 1.035319,1.097838 
	C180.226456,1.097838 359.452972,1.097838 538.839722,1.097838 
	C538.839722,180.666550 538.839722,360.333252 538.839722,540.000000 
	C461.463745,540.000000 383.981873,540.000000 306.000000,540.000000 
M251.899902,502.669495 
	C306.751678,506.157898 356.802856,492.480255 401.939606,460.941437 
	C492.536682,397.637726 525.650269,274.572357 477.037292,174.932251 
	C438.965790,96.898621 375.502838,52.634266 288.927063,43.777733 
	C234.430740,38.202869 183.833878,51.637421 138.828217,82.979599 
	C80.755989,123.421410 47.267185,179.315918 39.821487,249.766800 
	C33.671547,307.957245 48.024868,361.453613 82.837097,408.556061 
	C124.549034,464.994080 180.969879,496.199341 251.899902,502.669495 
z"/>
<path fill="#B1B1B1" opacity="1.000000" stroke="none" 
	d="
M251.436523,502.626678 
	C180.969879,496.199341 124.549034,464.994080 82.837097,408.556061 
	C48.024868,361.453613 33.671547,307.957245 39.821487,249.766800 
	C47.267185,179.315918 80.755989,123.421410 138.828217,82.979599 
	C183.833878,51.637421 234.430740,38.202869 288.927063,43.777733 
	C375.502838,52.634266 438.965790,96.898621 477.037292,174.932251 
	C525.650269,274.572357 492.536682,397.637726 401.939606,460.941437 
	C356.802856,492.480255 306.751678,506.157898 251.436523,502.626678 
M162.573807,350.255768 
	C162.415924,364.571320 162.372330,378.889648 162.028610,393.200745 
	C161.929123,397.343445 163.339874,398.679596 167.456482,398.674011 
	C235.090363,398.582367 302.724426,398.588989 370.358337,398.661591 
	C374.149292,398.665680 375.709351,397.529541 375.643127,393.525970 
	C375.436432,381.035339 375.823181,368.529419 375.378632,356.050842 
	C375.192383,350.822266 374.197510,345.383820 372.361633,340.494629 
	C364.976196,320.825867 349.968536,308.625183 331.236115,300.621124 
	C305.239899,289.513397 277.860382,288.648590 250.211502,290.489166 
	C234.812363,291.514313 219.807434,294.564514 205.689240,300.944550 
	C184.198303,310.656311 167.873184,325.108246 162.573807,350.255768 
M263.268250,147.738892 
	C260.476593,148.191833 257.649902,148.491562 254.898605,149.120956 
	C220.163406,157.066772 198.854324,190.878967 206.424637,225.967728 
	C213.669998,259.550354 247.527008,281.721924 281.235352,274.958191 
	C315.566742,268.069427 337.909729,236.310349 332.752441,201.730087 
	C327.881958,169.072739 297.152466,144.850464 263.268250,147.738892 
z"/>
<path fill="#FEFEFE" opacity="1.000000" stroke="none" 
	d="
M162.660278,349.828003 
	C167.873184,325.108246 184.198303,310.656311 205.689240,300.944550 
	C219.807434,294.564514 234.812363,291.514313 250.211502,290.489166 
	C277.860382,288.648590 305.239899,289.513397 331.236115,300.621124 
	C349.968536,308.625183 364.976196,320.825867 372.361633,340.494629 
	C374.197510,345.383820 375.192383,350.822266 375.378632,356.050842 
	C375.823181,368.529419 375.436432,381.035339 375.643127,393.525970 
	C375.709351,397.529541 374.149292,398.665680 370.358337,398.661591 
	C302.724426,398.588989 235.090363,398.582367 167.456482,398.674011 
	C163.339874,398.679596 161.929123,397.343445 162.028610,393.200745 
	C162.372330,378.889648 162.415924,364.571320 162.660278,349.828003 
z"/>
<path fill="#FFFFFF" opacity="1.000000" stroke="none" 
	d="
M263.706116,147.694427 
	C297.152466,144.850464 327.881958,169.072739 332.752441,201.730087 
	C337.909729,236.310349 315.566742,268.069427 281.235352,274.958191 
	C247.527008,281.721924 213.669998,259.550354 206.424637,225.967728 
	C198.854324,190.878967 220.163406,157.066772 254.898605,149.120956 
	C257.649902,148.491562 260.476593,148.191833 263.706116,147.694427 
z"/>
</svg>