<?xml version="1.0" encoding="UTF-8"?>
<svg version="1.1" xmlns="http://www.w3.org/2000/svg" width="1920" height="1080">
<path d="M0 0 C633.6 0 1267.2 0 1920 0 C1920 356.4 1920 712.8 1920 1080 C1286.4 1080 652.8 1080 0 1080 C0 723.6 0 367.2 0 0 Z " fill="#FEFEFE" transform="translate(0,0)"/>
<path d="M0 0 C14.32313894 9.71992784 24.10204568 24.59540052 27.53515625 41.578125 C29.99637583 59.69601033 26.72140212 77.38112209 15.6484375 92.1328125 C13.51177593 94.52673098 11.32048727 96.78539047 9 99 C7.97824588 100.0407635 6.95721603 101.08223954 5.9375 102.125 C5.298125 102.74375 4.65875 103.3625 4 104 C5.292297 106.71404754 6.71418763 109.14312359 8.46875 111.58203125 C8.95206787 112.25838623 9.43538574 112.93474121 9.93334961 113.6315918 C10.70884155 114.71114136 10.70884155 114.71114136 11.5 115.8125 C25.04740684 134.88350155 36.93198869 154.69314278 48.4375 175.0625 C49.00436523 176.06007324 49.57123047 177.05764648 50.15527344 178.08544922 C54.18870789 185.28154418 57.5173013 192.45415282 61 200 C154.06 200.33 247.12 200.66 343 201 C343.33 199.35 343.66 197.7 344 196 C344.82519531 193.96142578 344.82519531 193.96142578 345.828125 191.9453125 C346.2089624 191.17759521 346.5897998 190.40987793 346.98217773 189.61889648 C347.60974976 188.38441772 347.60974976 188.38441772 348.25 187.125 C348.68965088 186.25367432 349.12930176 185.38234863 349.58227539 184.48461914 C354.55878194 174.7364041 359.95921426 165.23361454 365.42138672 155.75146484 C366.9013976 153.17186035 368.36202643 150.58239887 369.81640625 147.98828125 C378.4906567 132.61077326 388.46790776 118.15945935 399 104 C398.40703125 103.72929687 397.8140625 103.45859375 397.203125 103.1796875 C386.95954274 97.69464877 379.79334501 84.5815558 376 74 C370.97874114 56.80408085 372.66907469 37.41994052 381.1875 21.75 C390.51775206 6.80966035 403.98834824 -4.04997681 421 -9 C426.47544332 -10.02095558 431.82599585 -10.18306789 437.375 -10.1875 C438.17421875 -10.19974609 438.9734375 -10.21199219 439.796875 -10.22460938 C455.89350235 -10.26367886 471.57165482 -3.23213614 483.25 7.75 C494.99321999 20.1670113 501.59266227 35.63596021 501.3125 52.625 C501.31572266 53.60984375 501.31894531 54.5946875 501.32226562 55.609375 C501.2035875 71.79275602 494.33653891 87.46063347 483.25 99.25 C476.31034553 105.80038952 467.91777693 110.67316094 459 114 C458.26394531 114.2990625 457.52789063 114.598125 456.76953125 114.90625 C450.16653423 117.17373387 443.66116819 117.28295295 436.75 117.3125 C435.32941284 117.32071777 435.32941284 117.32071777 433.88012695 117.32910156 C428.54308802 117.27455081 424.04807157 116.75009111 419 115 C418.90460937 115.65226562 418.80921875 116.30453125 418.7109375 116.9765625 C417.77008467 120.97777178 416.23566597 124.60096934 414.625 128.375 C414.27268311 129.20225586 413.92036621 130.02951172 413.55737305 130.88183594 C405.89381887 148.66591118 397.18756804 165.7071545 387.47314453 182.45458984 C386.11415783 184.8027495 384.76986022 187.15838713 383.43359375 189.51953125 C383.05871826 190.18138428 382.68384277 190.8432373 382.29760742 191.52514648 C381.95189697 192.13559814 381.60618652 192.7460498 381.25 193.375 C378.12707182 198.87292818 378.12707182 198.87292818 377 200 C377.72315682 200.00238835 378.44631365 200.00477671 379.19138432 200.00723743 C396.84684409 200.06656189 414.50215974 200.14222227 432.15747166 200.23571491 C440.69570742 200.28054112 449.2339027 200.31998558 457.7722168 200.34643555 C465.22054204 200.36952296 472.66873773 200.40303922 480.11695999 200.44870156 C484.0550031 200.47249007 487.99291905 200.49131237 491.93103218 200.49761391 C495.65016284 200.50373066 499.36896876 200.52396261 503.08797836 200.55427551 C505.07819062 200.56703719 507.06847916 200.56550399 509.05873108 200.5632782 C536.58864147 200.8453191 560.26260379 211.84210735 579.59594727 231.15698242 C592.06288988 244.15220241 599.01230665 260.65864637 603 278 C603.17788453 278.74257486 603.35576905 279.48514972 603.53904402 280.25022686 C604.10701481 283.63838299 604.1308537 286.87221881 604.13701439 290.30887032 C604.13966622 291.03832464 604.14231804 291.76777896 604.14505023 292.51933795 C604.1527276 294.97084158 604.15330181 297.42229498 604.15390015 299.87380981 C604.15791584 301.64649866 604.16235424 303.4191866 604.1671797 305.19187343 C604.17913984 310.06937425 604.1847924 314.94686517 604.18936086 319.82437778 C604.19531932 325.08305939 604.2069288 330.34172919 604.21765137 335.60040283 C604.24217357 348.3059729 604.25680422 361.01154689 604.26971143 373.71713334 C604.27342413 377.30737938 604.27739732 380.89762504 604.2814641 384.48787069 C604.30670629 406.79312409 604.32875481 429.09837812 604.34119225 451.40364265 C604.34412185 456.57036466 604.34708352 461.73708664 604.35009766 466.90380859 C604.35084371 468.18794277 604.35158976 469.47207695 604.35235842 470.79512428 C604.36500094 491.57836168 604.39820887 512.36151332 604.43989949 533.14471067 C604.48237412 554.49428556 604.50589385 575.84381662 604.51111281 597.19343364 C604.51452113 609.17545314 604.52620766 621.15733873 604.55921555 633.13931656 C604.58729349 643.34838283 604.59818156 653.55728774 604.58702008 663.76638962 C604.58185284 668.96979187 604.58459373 674.17285661 604.60948563 679.37620926 C604.6321424 684.15251726 604.63111215 688.92824855 604.61228175 693.70456778 C604.60950454 695.42009623 604.61495122 697.1356652 604.63009469 698.85112907 C604.84957045 725.36377873 595.58576966 749.85302593 577 769 C576.08154297 770.02867187 576.08154297 770.02867187 575.14453125 771.078125 C561.39772755 785.9680531 539.79799412 794.70386004 520 797 C516.39240718 797.14187438 512.78824551 797.13955115 509.17821026 797.13422108 C508.09327855 797.13657331 507.00834685 797.13892554 505.89053842 797.14134905 C502.24185017 797.14802526 498.59319763 797.14758124 494.94450378 797.14717102 C492.30729231 797.1504705 489.67008394 797.15415863 487.03287393 797.1583125 C480.53644893 797.1676271 474.04003075 797.17155862 467.54359991 797.17383147 C459.76164788 797.17679654 451.97970485 797.18549578 444.19775755 797.19424575 C425.3880912 797.2150794 406.57842329 797.22555852 387.76874809 797.23437535 C378.86760839 797.23858368 369.96646936 797.24380544 361.06533023 797.24905988 C330.58676634 797.26694975 300.10820226 797.28194481 269.6296339 797.28938007 C267.7165381 797.28985483 265.80344229 797.29033072 263.89034649 797.29080774 C262.94163707 797.29104411 261.99292765 797.29128049 261.01546947 797.29152403 C256.20896206 797.29272521 251.40245466 797.29394066 246.59594727 797.29516602 C245.64208697 797.29540617 244.68822667 797.29564632 243.70546151 797.29589374 C212.78838066 797.30378431 181.8713382 797.32721131 150.95427411 797.35972196 C118.2558563 797.39404291 85.55746094 797.41373334 52.85902482 797.41702431 C49.26731224 797.41744184 45.67559967 797.4179214 42.0838871 797.41844749 C41.19952676 797.41857069 40.31516642 797.41869388 39.40400728 797.4188208 C25.18984827 797.42115006 10.97573396 797.43679472 -3.23840913 797.45728934 C-17.53508794 797.47757539 -31.83171323 797.48301152 -46.12840376 797.47351871 C-54.61416322 797.46831448 -63.09974415 797.47413004 -71.5854778 797.49605338 C-77.26456826 797.50961237 -82.94353652 797.50843975 -88.62262833 797.49565142 C-91.851497 797.48878839 -95.07996064 797.49021875 -98.3088114 797.50521151 C-115.65453307 797.58073272 -132.41485599 796.88189025 -148.375 789.3125 C-149.11556641 788.9714624 -149.85613281 788.6304248 -150.61914062 788.27905273 C-157.45208621 785.00876698 -163.23081124 780.92574011 -169 776 C-169.88171875 775.2678125 -170.7634375 774.535625 -171.671875 773.78125 C-188.05059455 759.68562469 -201.29267873 737.9040402 -203.17026167 716.01508063 C-203.44680591 710.66639584 -203.40803099 705.31499825 -203.38768005 699.96087646 C-203.39185962 698.1592314 -203.39734055 696.35758897 -203.40399987 694.55595136 C-203.41839162 689.6356025 -203.41422942 684.71542204 -203.40683305 679.79506421 C-203.40208805 674.47656532 -203.41462307 669.15810217 -203.42485046 663.83961487 C-203.44201831 653.43156768 -203.44288256 643.02358092 -203.43763756 632.61552325 C-203.4335905 624.15201386 -203.43504578 615.68852228 -203.44038582 607.22501373 C-203.44113424 606.01885053 -203.44188266 604.81268733 -203.44265376 603.56997372 C-203.4441853 601.11936209 -203.44572365 598.66875047 -203.44726873 596.21813884 C-203.46098675 573.25277206 -203.45556122 550.28743937 -203.44408352 527.32207337 C-203.43415419 506.33430585 -203.44708791 485.34662654 -203.47101771 464.35887262 C-203.49542924 442.78530306 -203.50501138 421.21177455 -203.49836498 399.63819146 C-203.49487704 387.53566183 -203.49707668 375.4332 -203.51461601 363.33068085 C-203.52936375 353.02696568 -203.52993991 342.72336605 -203.5125451 332.41965309 C-203.50405354 327.16789331 -203.50184036 321.91633968 -203.51719666 316.66459084 C-203.53110895 311.84681789 -203.52619709 307.02942644 -203.50695742 302.2116752 C-203.50321704 300.47893402 -203.50606202 298.7461618 -203.51656907 297.01344845 C-203.59814703 282.51711537 -201.90537058 268.24471834 -195.25 255.125 C-194.90638428 254.42431396 -194.56276855 253.72362793 -194.20874023 253.00170898 C-191.09854561 246.84294281 -187.40407886 241.31671117 -183 236 C-182.30132813 235.15050781 -181.60265625 234.30101562 -180.8828125 233.42578125 C-164.76875874 214.70251238 -142.13789033 202.68184352 -117.37553787 200.71161842 C-113.55446242 200.59577662 -109.73878702 200.56272125 -105.91650391 200.56762695 C-104.4661731 200.55858268 -103.01584986 200.54824907 -101.5655365 200.53674316 C-97.67597278 200.50945932 -93.78655518 200.49992819 -89.89690828 200.49388909 C-85.81430185 200.48442986 -81.73180143 200.45822117 -77.64926147 200.43388367 C-69.93969295 200.39042072 -62.23014523 200.36175027 -54.52049196 200.33856028 C-45.73429934 200.31139948 -36.94821444 200.26749526 -28.16209912 200.22227156 C-10.10812318 200.12971512 7.94588129 200.0579025 26 200 C25.39622025 198.99545273 24.79244049 197.99090546 24.17036438 196.95591736 C23.36266291 195.6111661 22.55498063 194.26640332 21.74731445 192.92163086 C21.35121223 192.26272606 20.95511002 191.60382126 20.5470047 190.92494965 C6.05600218 166.79121299 -7.84399263 142.31979375 -18 116 C-19.08796875 116.15855469 -20.1759375 116.31710937 -21.296875 116.48046875 C-34.33866407 118.09492065 -48.99054399 118.91291259 -61 113 C-61.92554688 112.56429687 -62.85109375 112.12859375 -63.8046875 111.6796875 C-80.74125313 103.09411545 -91.37072307 89.57401113 -98 72 C-103.02624524 54.77983537 -100.38105086 36.93337219 -91.9453125 21.328125 C-82.94351874 5.9274658 -69.17412591 -3.16531484 -52.7109375 -9.20703125 C-34.26848553 -13.14789204 -16.01928194 -9.4751564 0 0 Z " fill="#161F4E" transform="translate(760,147)"/>
<path d="M0 0 C20.09632113 13.9391504 30.76266496 35.4886451 35.75390625 58.91015625 C38.48475771 75.22612951 38.45618323 94.00434812 33.75390625 109.91015625 C33.56054688 110.60189941 33.3671875 111.29364258 33.16796875 112.00634766 C27.29207433 132.76693449 16.93788483 151.75595372 -2.24609375 162.91015625 C-13.03865314 168.78857777 -25.81016599 170.96635627 -37.8359375 168.03515625 C-57.41228535 161.57347357 -69.96826223 147.19400524 -79.15234375 129.23046875 C-91.9410074 103.03826972 -92.03719799 69.02217799 -82.99609375 41.66015625 C-76.04768002 23.5401911 -64.26806625 5.50483762 -46.24609375 -3.08984375 C-31.08451374 -9.76344155 -14.2793286 -8.45951491 0 0 Z " fill="#FEFEFE" transform="translate(1178.24609375,535.08984375)"/>
<path d="M0 0 C16.95827801 15.09190207 27.80523462 38.65055073 29.41894531 61.31152344 C30.00717806 75.75837919 30.55032406 90.33682186 26.41894531 104.31152344 C26.22558594 105.0032666 26.03222656 105.69500977 25.83300781 106.40771484 C19.95711339 127.16830168 9.6029239 146.15732091 -9.58105469 157.31152344 C-20.49176332 163.25429773 -33.60146694 165.46322006 -45.70605469 162.12402344 C-47.34305112 161.55316003 -48.96869808 160.94866435 -50.58105469 160.31152344 C-51.38027344 160.00601563 -52.17949219 159.70050781 -53.00292969 159.38574219 C-71.18905337 151.42207338 -82.19470495 133.41536199 -89.60839844 115.88183594 C-90.38901217 113.71299561 -90.98688335 111.53877648 -91.58105469 109.31152344 C-91.93039062 108.25707031 -92.27972656 107.20261719 -92.63964844 106.11621094 C-95.66507629 96.19692488 -95.96270818 86.35004745 -95.95605469 76.06152344 C-95.95777679 75.38096893 -95.9594989 74.70041443 -95.96127319 73.99923706 C-95.95776912 61.7447526 -94.92854711 49.9365913 -90.89355469 38.31152344 C-90.63300293 37.55097656 -90.37245117 36.79042969 -90.10400391 36.00683594 C-83.82380252 18.31654725 -72.25255686 1.59796349 -55.58105469 -7.68847656 C-36.67756331 -16.6397516 -15.95223712 -13.51355021 0 0 Z " fill="#FEFEFE" transform="translate(801.5810546875,540.6884765625)"/>
</svg>
