<svg version="1.1" id="Layer_1" xmlns="http://www.w3.org/2000/svg" xmlns:xlink="http://www.w3.org/1999/xlink" x="0px" y="0px"
	 width="100%" viewBox="0 0 861 839" enable-background="new 0 0 861 839" xml:space="preserve">
<path fill="#FFFFFF" opacity="1.000000" stroke="none" 
	d="
M486.000000,840.000000 
	C324.000061,840.000000 162.500092,840.000000 1.000108,840.000000 
	C1.000072,560.333435 1.000072,280.666931 1.000036,1.000296 
	C287.999786,1.000197 574.999573,1.000197 861.999512,1.000099 
	C861.999634,280.666351 861.999634,560.332703 861.999817,839.999512 
	C736.833313,840.000000 611.666687,840.000000 486.000000,840.000000 
M808.635010,790.122498 
	C824.764771,771.923889 832.984131,750.676941 832.988342,726.348145 
	C833.011963,591.021484 833.018005,455.694794 832.938354,320.368164 
	C832.934875,314.400787 832.563477,308.335449 831.470581,302.482452 
	C822.894470,256.553101 784.634583,225.001022 737.819336,225.000320 
	C695.654724,224.999680 653.490173,225.000183 611.325562,225.000183 
	C609.575562,225.000183 607.825562,225.000183 605.350281,225.000183 
	C621.759033,196.783081 637.495483,169.171646 648.496826,139.298340 
	C687.626038,144.995468 716.536316,129.978775 726.959412,98.093880 
	C736.687866,68.333870 725.147217,37.003456 697.210693,21.385988 
	C670.835632,6.641405 636.247986,13.284781 617.126465,36.730259 
	C606.705383,49.507839 602.148560,64.151749 602.814941,80.751671 
	C603.624573,100.922905 612.955017,116.380058 627.926636,128.906723 
	C606.817627,157.834015 587.331970,190.443207 573.445740,220.696106 
	C571.851135,224.170059 570.046204,225.088211 566.409363,225.083923 
	C475.913971,224.977203 385.418396,225.000183 294.922852,225.000168 
	C293.426727,225.000168 291.930603,225.000153 290.365906,225.000153 
	C273.469086,191.210236 255.023514,158.464981 231.667068,128.783066 
	C262.085541,103.816925 262.786560,65.821709 245.459686,40.675884 
	C228.820831,16.528555 194.381500,6.641787 167.168594,18.919111 
	C137.786209,32.175213 122.686989,64.343758 131.499115,95.186028 
	C135.729660,109.992844 144.387329,121.733009 157.059219,130.429306 
	C173.608826,141.786743 191.904999,143.206177 211.188828,139.284409 
	C222.561264,169.677322 239.491165,196.992722 255.920609,225.000183 
	C210.463837,225.000183 165.634567,225.047928 120.805534,224.967926 
	C109.015442,224.946884 97.671997,226.922302 86.585487,230.927139 
	C50.922634,243.809799 25.970358,278.923737 25.959574,316.781189 
	C25.920454,454.107758 25.941780,591.434326 25.954002,728.760925 
	C25.954300,732.091125 25.822563,735.458740 26.244320,738.745850 
	C32.300301,785.945251 72.253517,820.999817 119.888992,820.999878 
	C325.545532,821.000061 531.202087,820.983521 736.858643,821.019165 
	C764.992859,821.024048 788.786621,811.094360 808.635010,790.122498 
z"/>
<path fill="#161F4E" opacity="1.000000" stroke="none" 
	d="
M808.393799,790.383667 
	C788.786621,811.094360 764.992859,821.024048 736.858643,821.019165 
	C531.202087,820.983521 325.545532,821.000061 119.888992,820.999878 
	C72.253517,820.999817 32.300301,785.945251 26.244320,738.745850 
	C25.822563,735.458740 25.954300,732.091125 25.954002,728.760925 
	C25.941780,591.434326 25.920454,454.107758 25.959574,316.781189 
	C25.970358,278.923737 50.922634,243.809799 86.585487,230.927139 
	C97.671997,226.922302 109.015442,224.946884 120.805534,224.967926 
	C165.634567,225.047928 210.463837,225.000183 255.920609,225.000183 
	C239.491165,196.992722 222.561264,169.677322 211.188828,139.284409 
	C191.904999,143.206177 173.608826,141.786743 157.059219,130.429306 
	C144.387329,121.733009 135.729660,109.992844 131.499115,95.186028 
	C122.686989,64.343758 137.786209,32.175213 167.168594,18.919111 
	C194.381500,6.641787 228.820831,16.528555 245.459686,40.675884 
	C262.786560,65.821709 262.085541,103.816925 231.667068,128.783066 
	C255.023514,158.464981 273.469086,191.210236 290.365906,225.000153 
	C291.930603,225.000153 293.426727,225.000168 294.922852,225.000168 
	C385.418396,225.000183 475.913971,224.977203 566.409363,225.083923 
	C570.046204,225.088211 571.851135,224.170059 573.445740,220.696106 
	C587.331970,190.443207 606.817627,157.834015 627.926636,128.906723 
	C612.955017,116.380058 603.624573,100.922905 602.814941,80.751671 
	C602.148560,64.151749 606.705383,49.507839 617.126465,36.730259 
	C636.247986,13.284781 670.835632,6.641405 697.210693,21.385988 
	C725.147217,37.003456 736.687866,68.333870 726.959412,98.093880 
	C716.536316,129.978775 687.626038,144.995468 648.496826,139.298340 
	C637.495483,169.171646 621.759033,196.783081 605.350281,225.000183 
	C607.825562,225.000183 609.575562,225.000183 611.325562,225.000183 
	C653.490173,225.000183 695.654724,224.999680 737.819336,225.000320 
	C784.634583,225.001022 822.894470,256.553101 831.470581,302.482452 
	C832.563477,308.335449 832.934875,314.400787 832.938354,320.368164 
	C833.018005,455.694794 833.011963,591.021484 832.988342,726.348145 
	C832.984131,750.676941 824.764771,771.923889 808.393799,790.383667 
M645.543945,574.097900 
	C655.481812,568.419678 663.041260,560.301880 668.821655,550.589661 
	C684.408569,524.400574 687.402222,496.173523 681.247803,466.811920 
	C677.124756,447.141632 668.593506,429.611938 652.569275,416.744781 
	C637.193970,404.398712 620.082947,401.116943 601.714661,409.403198 
	C586.966370,416.056335 577.263000,427.921051 569.942078,441.981995 
	C558.918823,463.153900 556.916321,485.903778 559.484741,509.019867 
	C561.849182,530.300232 569.665833,549.581848 585.167847,565.074341 
	C602.309448,582.205444 624.567871,585.701660 645.543945,574.097900 
M274.960938,422.540588 
	C272.757111,420.509430 270.692017,418.298187 268.326874,416.476440 
	C253.364166,404.951355 237.076172,401.468628 219.172852,408.812622 
	C205.806122,414.295685 196.426254,424.285400 189.183533,436.364288 
	C174.309006,461.171021 172.010406,488.181885 176.642929,515.989746 
	C179.798996,534.934753 187.684067,551.931030 201.702316,565.477539 
	C215.645157,578.951111 232.203568,584.536438 251.151520,578.808228 
	C266.149261,574.274353 276.878113,563.793152 284.843048,550.568481 
	C299.422638,526.360901 302.752411,500.049164 298.402039,472.581238 
	C295.456818,453.985535 288.398743,437.109985 274.960938,422.540588 
z"/>
<path fill="#FEFEFE" opacity="1.000000" stroke="none" 
	d="
M645.237915,574.305847 
	C624.567871,585.701660 602.309448,582.205444 585.167847,565.074341 
	C569.665833,549.581848 561.849182,530.300232 559.484741,509.019867 
	C556.916321,485.903778 558.918823,463.153900 569.942078,441.981995 
	C577.263000,427.921051 586.966370,416.056335 601.714661,409.403198 
	C620.082947,401.116943 637.193970,404.398712 652.569275,416.744781 
	C668.593506,429.611938 677.124756,447.141632 681.247803,466.811920 
	C687.402222,496.173523 684.408569,524.400574 668.821655,550.589661 
	C663.041260,560.301880 655.481812,568.419678 645.237915,574.305847 
z"/>
<path fill="#FEFEFE" opacity="1.000000" stroke="none" 
	d="
M275.203735,422.800873 
	C288.398743,437.109985 295.456818,453.985535 298.402039,472.581238 
	C302.752411,500.049164 299.422638,526.360901 284.843048,550.568481 
	C276.878113,563.793152 266.149261,574.274353 251.151520,578.808228 
	C232.203568,584.536438 215.645157,578.951111 201.702316,565.477539 
	C187.684067,551.931030 179.798996,534.934753 176.642929,515.989746 
	C172.010406,488.181885 174.309006,461.171021 189.183533,436.364288 
	C196.426254,424.285400 205.806122,414.295685 219.172852,408.812622 
	C237.076172,401.468628 253.364166,404.951355 268.326874,416.476440 
	C270.692017,418.298187 272.757111,420.509430 275.203735,422.800873 
z"/>
</svg>