<svg version="1.1" id="Layer_1" xmlns="http://www.w3.org/2000/svg" xmlns:xlink="http://www.w3.org/1999/xlink" x="0px" y="0px"
	 width="100%" viewBox="0 0 810 790" enable-background="new 0 0 810 790" xml:space="preserve">
<path fill="#17204F" opacity="1.000000" stroke="none" 
	d="
M455.000000,791.000000 
	C303.333344,791.000000 152.166672,791.000000 1.000000,791.000000 
	C1.000000,527.666687 1.000000,264.333344 1.000000,1.000000 
	C271.000000,1.000000 541.000000,1.000000 811.000000,1.000000 
	C811.000000,264.333344 811.000000,527.666687 811.000000,791.000000 
	C692.500000,791.000000 574.000000,791.000000 455.000000,791.000000 
M771.493164,747.950134 
	C783.618347,731.705200 790.004272,713.528137 790.003235,693.177734 
	C789.996460,564.359192 789.991394,435.540680 790.011597,306.722168 
	C790.013794,292.657104 787.184387,279.199188 780.620789,266.795197 
	C764.563721,236.450562 739.601562,218.732101 704.944275,217.929337 
	C663.304504,216.964859 621.627502,217.605606 579.966614,217.551743 
	C578.188660,217.549454 576.410706,217.551437 575.151794,217.551437 
	C588.968689,190.479431 602.701782,163.571655 616.723938,136.097565 
	C631.636292,140.017853 647.187317,138.357040 661.799500,130.219391 
	C676.664246,121.941101 686.603271,109.377472 690.575439,92.956406 
	C697.955811,62.446030 684.335571,34.576336 657.576477,22.190990 
	C632.783508,10.715655 600.599670,16.710127 582.420105,42.148838 
	C567.120605,63.557438 565.444031,101.946518 595.186218,126.138206 
	C594.768738,126.784874 594.376648,127.484749 593.898438,128.119781 
	C574.039490,154.490875 558.278870,183.287643 543.969543,212.916092 
	C542.279541,216.415390 540.478027,217.658188 536.530151,217.652084 
	C451.040222,217.519852 365.549957,217.525543 280.059937,217.639053 
	C276.354462,217.643967 274.533722,216.522522 272.929138,213.174026 
	C260.494659,187.225250 245.961288,162.486069 229.355209,138.978271 
	C226.222366,134.543381 222.955383,130.203247 219.767517,125.842979 
	C246.583023,104.623787 249.129700,68.634186 234.456039,45.142166 
	C218.744080,19.987886 187.295578,9.504991 159.251907,21.346294 
	C133.485397,32.226074 118.186569,57.763111 123.471336,89.020271 
	C125.942566,103.636497 133.477570,115.777199 145.249756,124.920403 
	C161.582886,137.606003 180.027481,140.710892 200.116104,135.696075 
	C211.192886,164.644241 226.816208,190.796539 243.034302,217.551453 
	C240.529022,217.551453 238.762360,217.551453 236.995712,217.551453 
	C195.500473,217.551544 154.005188,217.519943 112.510086,217.594574 
	C107.696686,217.603241 102.797874,217.731308 98.084953,218.598801 
	C54.073673,226.699799 24.105467,262.950958 24.105850,307.842865 
	C24.106937,434.994934 24.098675,562.147034 24.138033,689.299072 
	C24.139578,694.287048 24.361788,699.298462 24.870445,704.259033 
	C29.306017,747.516052 68.145844,782.189575 110.241356,782.155762 
	C308.218506,781.996887 506.195831,782.087708 704.173096,782.065308 
	C707.329956,782.064941 710.523499,782.009399 713.637817,781.554443 
	C737.120605,778.123413 756.116028,766.834595 771.493164,747.950134 
z"/>
<path fill="#FFFFFF" opacity="1.000000" stroke="none" 
	d="
M771.260010,748.220154 
	C756.116028,766.834595 737.120605,778.123413 713.637817,781.554443 
	C710.523499,782.009399 707.329956,782.064941 704.173096,782.065308 
	C506.195831,782.087708 308.218506,781.996887 110.241356,782.155762 
	C68.145844,782.189575 29.306017,747.516052 24.870445,704.259033 
	C24.361788,699.298462 24.139578,694.287048 24.138033,689.299072 
	C24.098675,562.147034 24.106937,434.994934 24.105850,307.842865 
	C24.105467,262.950958 54.073673,226.699799 98.084953,218.598801 
	C102.797874,217.731308 107.696686,217.603241 112.510086,217.594574 
	C154.005188,217.519943 195.500473,217.551544 236.995712,217.551453 
	C238.762360,217.551453 240.529022,217.551453 243.034302,217.551453 
	C226.816208,190.796539 211.192886,164.644241 200.116104,135.696075 
	C180.027481,140.710892 161.582886,137.606003 145.249756,124.920403 
	C133.477570,115.777199 125.942566,103.636497 123.471336,89.020271 
	C118.186569,57.763111 133.485397,32.226074 159.251907,21.346294 
	C187.295578,9.504991 218.744080,19.987886 234.456039,45.142166 
	C249.129700,68.634186 246.583023,104.623787 219.767517,125.842979 
	C222.955383,130.203247 226.222366,134.543381 229.355209,138.978271 
	C245.961288,162.486069 260.494659,187.225250 272.929138,213.174026 
	C274.533722,216.522522 276.354462,217.643967 280.059937,217.639053 
	C365.549957,217.525543 451.040222,217.519852 536.530151,217.652084 
	C540.478027,217.658188 542.279541,216.415390 543.969543,212.916092 
	C558.278870,183.287643 574.039490,154.490875 593.898438,128.119781 
	C594.376648,127.484749 594.768738,126.784874 595.186218,126.138206 
	C565.444031,101.946518 567.120605,63.557438 582.420105,42.148838 
	C600.599670,16.710127 632.783508,10.715655 657.576477,22.190990 
	C684.335571,34.576336 697.955811,62.446030 690.575439,92.956406 
	C686.603271,109.377472 676.664246,121.941101 661.799500,130.219391 
	C647.187317,138.357040 631.636292,140.017853 616.723938,136.097565 
	C602.701782,163.571655 588.968689,190.479431 575.151794,217.551437 
	C576.410706,217.551437 578.188660,217.549454 579.966614,217.551743 
	C621.627502,217.605606 663.304504,216.964859 704.944275,217.929337 
	C739.601562,218.732101 764.563721,236.450562 780.620789,266.795197 
	C787.184387,279.199188 790.013794,292.657104 790.011597,306.722168 
	C789.991394,435.540680 789.996460,564.359192 790.003235,693.177734 
	C790.004272,713.528137 783.618347,731.705200 771.260010,748.220154 
M563.569458,396.019287 
	C557.220764,402.747040 549.843994,408.779510 544.729736,416.342041 
	C532.773743,434.021759 529.313782,454.173828 529.845886,475.326843 
	C530.335754,494.801392 535.297119,512.716492 545.999817,529.011536 
	C567.743713,562.117004 606.136719,563.646545 630.006348,532.359375 
	C654.291687,500.527313 654.992249,445.507690 631.790833,412.910004 
	C613.409302,387.084351 586.228455,381.391632 563.569458,396.019287 
M171.034317,435.566345 
	C165.049606,452.077789 164.386002,469.238495 166.297806,486.341949 
	C168.543213,506.430206 175.785721,524.743469 190.290649,539.433105 
	C206.902542,556.256531 229.193130,559.674377 248.130508,548.376587 
	C259.776215,541.428955 267.814911,531.115967 273.878540,519.197021 
	C284.052490,499.198700 286.021515,477.748413 283.414368,455.972168 
	C280.796692,434.107697 272.641754,414.514252 255.328751,399.769928 
	C238.017410,385.027008 215.865433,384.017883 197.443405,397.374084 
	C184.453003,406.792297 176.699585,420.034882 171.034317,435.566345 
z"/>
<path fill="#17204F" opacity="1.000000" stroke="none" 
	d="
M563.869385,395.815796 
	C586.228455,381.391632 613.409302,387.084351 631.790833,412.910004 
	C654.992249,445.507690 654.291687,500.527313 630.006348,532.359375 
	C606.136719,563.646545 567.743713,562.117004 545.999817,529.011536 
	C535.297119,512.716492 530.335754,494.801392 529.845886,475.326843 
	C529.313782,454.173828 532.773743,434.021759 544.729736,416.342041 
	C549.843994,408.779510 557.220764,402.747040 563.869385,395.815796 
z"/>
<path fill="#17204F" opacity="1.000000" stroke="none" 
	d="
M171.137329,435.186340 
	C176.699585,420.034882 184.453003,406.792297 197.443405,397.374084 
	C215.865433,384.017883 238.017410,385.027008 255.328751,399.769928 
	C272.641754,414.514252 280.796692,434.107697 283.414368,455.972168 
	C286.021515,477.748413 284.052490,499.198700 273.878540,519.197021 
	C267.814911,531.115967 259.776215,541.428955 248.130508,548.376587 
	C229.193130,559.674377 206.902542,556.256531 190.290649,539.433105 
	C175.785721,524.743469 168.543213,506.430206 166.297806,486.341949 
	C164.386002,469.238495 165.049606,452.077789 171.137329,435.186340 
z"/>
</svg>